# xmcd
#
# Track frame offsets: 
#        150
#        15690
#        31848
#        47869
#        66081
#        82405
#        101114
#        114075
#        131926
#        146293
#        162974
#
# Disc length: 2423 seconds
#
# Revision: 0
# Processed by: cddbd v1.5.2PL0 Copyright (c) Steve Scherf et al.
# Submitted via: ExactAudioCopy v1.3
#
DISCID=9509750b
DTITLE=Junior Brown - Deep in the Heart of Me
DYEAR=2018
DGENRE=Country
TTITLE0=Another Honkytonk Burned Down
TTITLE1=Twenty Four Seven
TTITLE2=Little Miss Stuck Up
TTITLE3=Deep in the Heart of Me
TTITLE4=The Cockeyed Comp From Camp Kakanakakee
TTITLE5=Between Anger and Despair
TTITLE6=Tar Bucket Dan
TTITLE7=You Do The Math
TTITLE8=So Close, Yet So Far Away
TTITLE9=Drag Race At Forty Fathoms
TTITLE10=Deep in the Heart of Me (acoustic version)
EXTD=
EXTT0=
EXTT1=
EXTT2=
EXTT3=
EXTT4=
EXTT5=
EXTT6=
EXTT7=
EXTT8=
EXTT9=
EXTT10=
PLAYORDER=
